<?xml version="1.0" encoding="utf-8"?>
<svg viewBox="0 0 512 512" xmlns="http://www.w3.org/2000/svg">
  <ellipse style="stroke: rgba(0, 0, 0, 0); fill: rgb(255, 119, 0);" cx="256" cy="256" rx="240" ry="240"/>
  <g transform="matrix(1, 0, 0, 1, 81.9375, 117.1875)">
    <rect height="277.625" opacity="0" width="348.125" x="0" y="0" style=""/>
    <path d="M308.875 23.875L92.625 23.875C66.375 23.875 53.375 36.75 53.375 62.625L53.375 134C59.875 133.25 67.375 133.25 73.5 134.125L73.5 63.625C73.5 50.625 80.375 44 92.875 44L308.625 44C321 44 328 50.625 328 63.625L328 214.25C328 227.25 321 233.875 308.625 233.875L141.25 233.875C139.625 241 136.875 247.75 133.375 254L308.875 254C335.125 254 348.125 241 348.125 215.25L348.125 62.625C348.125 36.875 335.125 23.875 308.875 23.875ZM66.75 84.25L334.75 84.25L334.75 66.625L66.75 66.625ZM144.125 214L283.5 214C290.25 214 294.75 209.625 294.75 203.125L294.75 184.375C294.75 177.875 290.25 173.5 283.5 173.5L133 173.5C140.125 185.625 144.125 199.75 144.125 214ZM63.5 277.625C98.125 277.625 127 248.875 127 214.125C127 179.5 98 150.625 63.375 150.625C28.625 150.625 0 179.5 0 214.125C0 248.875 28.75 277.625 63.5 277.625ZM63.5 262.625C36.625 262.625 15.125 241 15.125 214.125C15.125 187.375 36.625 165.625 63.375 165.625C90.25 165.625 111.875 187.375 112 214.125C112.125 241 90.25 262.625 63.5 262.625ZM63.375 251.75C84.125 251.75 101 234.75 101 214.25C101 193.625 84 176.625 63.375 176.625C42.75 176.625 25.875 193.625 25.875 214.25C25.875 234.75 42.875 251.75 63.375 251.75Z" fill-opacity="0.85" style=""/>
  </g>
</svg>